# xmcd CD database file
#
# Track frame offsets:
#	150
#	15146
#	30700
#	43889
#	51671
#	68007
#	80096
#	92688
#	111770
#	129959
#	142366
#	155471
#	166678
#	174798
#	187475
#	197201
#	210054
#	220889
#	232370
#	241813
#	259838
#	270132
#	290441
#	297484
#
# Disc length: 4182 seconds
#
# Revision: 0
# Processed by: cddbd v1.5.2PL0 Copyright (c) Steve Scherf et al.
# Submitted via: CDex 1.83
#
DISCID=62105418
DTITLE=Betty Carter - Mett Betty Carter And Ray Bryant - Out There
DYEAR=1958
DGENRE=Jazz
TTITLE0=Sneaking Around
TTITLE1=Moonlight In Vermont
TTITLE2=What Is This Thing Called Love
TTITLE3=Thou Swell
TTITLE4=Willow Weep For Me
TTITLE5=I Could Write A Book
TTITLE6=Threesome
TTITLE7=Gone With The Wind
TTITLE8=Old Devil Moon
TTITLE9=The Way You Look Tonight
TTITLE10=No Moon At All
TTITLE11=Can't We Be Friends
TTITLE12=You're Driving Me Crazy
TTITLE13=I Can't Help It
TTITLE14=By The Bend In The River
TTITLE15=Bab's Blues
TTITLE16=Foul Play
TTITLE17=You're Getting To Be A Habit
TTITLE18=Only The Isle of May
TTITLE19=But BEautiful
TTITLE20=All I've Got
TTITLE21=Make It Last
TTITLE22=Bluebird Of Happiness
TTITLE23=Something Wonderful
EXTD=YEAR: 1958
EXTT0=
EXTT1=
EXTT2=
EXTT3=
EXTT4=
EXTT5=
EXTT6=
EXTT7=
EXTT8=
EXTT9=
EXTT10=
EXTT11=
EXTT12=
EXTT13=
EXTT14=
EXTT15=
EXTT16=
EXTT17=
EXTT18=
EXTT19=
EXTT20=
EXTT21=
EXTT22=
EXTT23=
PLAYORDER=
